<svg width="1044" height="435" viewBox="0 0 1044 435" fill="none" xmlns="http://www.w3.org/2000/svg">
<rect y="83" width="1000" height="352" rx="176" fill="#5267DF"/>
<rect x="604" width="350" height="346" rx="8" fill="#E8EAF6"/>
<mask id="mask0_5561_3" style="mask-type:alpha" maskUnits="userSpaceOnUse" x="604" y="0" width="350" height="346">
<rect x="604" width="350" height="346" rx="8" fill="white"/>
</mask>
<g mask="url(#mask0_5561_3)">
<rect x="600.47" y="0.197266" width="547" height="59" fill="#242A45"/>
<circle opacity="0.244768" cx="642.47" cy="30.1973" r="16" fill="white"/>
<rect opacity="0.75" x="673.47" y="20.1973" width="120" height="6" rx="3" fill="white"/>
<rect opacity="0.25" x="673.47" y="34.1973" width="64" height="6" rx="3" fill="white"/>
</g>
<rect x="631" y="85" width="237" height="34" rx="8" fill="white"/>
<rect x="631" y="133" width="237" height="34" rx="8" fill="white"/>
<rect x="631" y="181" width="237" height="34" rx="8" fill="white"/>
<rect x="631" y="229" width="237" height="34" rx="8" fill="white"/>
<rect x="631" y="277" width="237" height="34" rx="8" fill="white"/>
<mask id="mask1_5561_3" style="mask-type:alpha" maskUnits="userSpaceOnUse" x="694" y="83" width="350" height="296">
<path fill-rule="evenodd" clip-rule="evenodd" d="M1044 83.0479H694.219V379H1044V83.0479Z" fill="white"/>
</mask>
<g mask="url(#mask1_5561_3)">
<path fill-rule="evenodd" clip-rule="evenodd" d="M695.293 333.34C695.963 335.358 697.008 337.338 698.467 339.275C723.669 372.749 817.843 383.908 910.691 377.089C959.167 373.527 993.361 352.563 1014.97 333.34C1020.14 328.746 1024.58 324.252 1028.33 320.118C1033 314.972 1036.65 309.257 1039.24 303.222C1046.89 285.444 1045.42 264.906 1034.12 248.061C1024.54 233.785 1011.4 223.237 1004.61 211.518C991.674 189.202 1060.04 132.782 1015.55 97.1378C999.848 84.5542 966.393 81.6497 929.89 83.6024C885.462 85.9797 836.525 95.5573 809.606 103.647C753.894 120.384 719.026 144.628 711.067 171.903C703.109 199.179 724.378 211.521 742.947 237.557C760.442 262.083 684.394 300.554 695.293 333.34Z" fill="#3A499E"/>
</g>
<path fill-rule="evenodd" clip-rule="evenodd" d="M789.451 173.872L806.436 171L809 186.799L788 193L789.451 173.872Z" fill="#306299"/>
<path fill-rule="evenodd" clip-rule="evenodd" d="M807 172.118C807 172.118 820.176 171.771 834 166L827.504 178.254L808.751 184L807 172.118Z" fill="#FA9E89"/>
<mask id="mask2_5561_3" style="mask-type:alpha" maskUnits="userSpaceOnUse" x="884" y="85" width="158" height="220">
<path fill-rule="evenodd" clip-rule="evenodd" d="M1042 85.0479H884.175V304.892H1042V85.0479Z" fill="white"/>
</mask>
<g mask="url(#mask2_5561_3)">
<path opacity="0.152134" fill-rule="evenodd" clip-rule="evenodd" d="M884.934 137.186C893.046 177.345 1030.94 238.876 1037.57 304.892C1044.69 287.14 1043.32 266.634 1032.8 249.814C1023.89 235.559 1011.65 225.027 1005.33 213.325C993.291 191.043 1056.93 134.707 1015.52 99.1167C1000.9 86.5517 969.758 83.6518 935.779 85.6015C925.435 87.966 877.615 100.933 884.934 137.186Z" fill="white"/>
</g>
<path opacity="0.149089" fill-rule="evenodd" clip-rule="evenodd" d="M692.179 326C691.195 333.866 694.521 339.336 695.819 341.227C718.249 373.899 840.314 384.79 922.951 378.135C966.096 374.659 1001.46 352.42 1023 327.916L692.179 326Z" fill="black"/>
<path opacity="0.128046" fill-rule="evenodd" clip-rule="evenodd" d="M970.373 329.812C970.373 329.812 980.45 330.422 980.295 333.472C980.14 336.521 973.784 343.23 973.784 343.23L983.293 339.825L1012 338.732L1008.9 341.401C1008.9 341.401 985.773 342.468 984.74 343.281C983.706 344.094 970.476 354.057 968.203 354.463C965.929 354.87 821.515 354.688 821.515 354.688C821.515 354.688 806.657 355.277 804.176 350.702C801.696 346.128 792.704 346.433 790.223 350.397C787.743 354.362 788.087 369 788.087 369C788.087 369 781.294 367.227 780.921 367.069C757.356 357.106 731 326 731 326L970.373 329.812Z" fill="black"/>
<path fill-rule="evenodd" clip-rule="evenodd" d="M1001 290.695L986.549 339.858C986.549 339.858 984.494 342.302 983 340.038L992.714 290L1001 290.695Z" fill="#162F44"/>
<path fill-rule="evenodd" clip-rule="evenodd" d="M1020.87 289L1028 322.138L1024.6 326L1015 289.954L1020.87 289Z" fill="#162F44"/>
<path fill-rule="evenodd" clip-rule="evenodd" d="M808.507 300.082L802.482 334.282L801.483 339.951L803.675 340.273L803.831 340.297L808.619 341C808.619 341 824.59 301.656 825.949 292.213C827.309 282.77 800.804 245 800.804 245L772.036 247.448C771.275 255.667 782.78 271.159 793.063 283.218C801.164 292.717 808.507 300.082 808.507 300.082Z" fill="#F4F2F9"/>
<path fill-rule="evenodd" clip-rule="evenodd" d="M808.119 298.535L801.243 338.302L803.389 338.623L803.462 339C803.462 339 803.489 338.878 803.542 338.648C804.417 334.818 814.682 300.911 814.994 294C815.327 286.674 800.967 264 800.967 264L793 281.714C800.931 291.188 808.119 298.535 808.119 298.535Z" fill="#E0DFEA"/>
<path fill-rule="evenodd" clip-rule="evenodd" d="M770 249L798.667 246.613L800 198.886C800 198.886 793 174 785.333 174C780.78 174 776.347 175.804 773.634 180.195C771.78 183.198 770.73 187.415 771 193.091C771.61 205.868 770.27 241.998 770.033 248.113C770.014 248.69 770 249 770 249Z" fill="#6397D9"/>
<path fill-rule="evenodd" clip-rule="evenodd" d="M777.885 245.276L777.347 188.458L784 174.937L776.237 174L773.508 177.211C771.719 180.213 770.705 184.429 770.966 190.104C771.555 202.878 770.229 239.886 770 246L777.885 245.276Z" fill="#8BBFF7"/>
<path fill-rule="evenodd" clip-rule="evenodd" d="M778 190L799.017 230L799.563 212.009L800 197.411L782.476 190H778Z" fill="#306299"/>
<path fill-rule="evenodd" clip-rule="evenodd" d="M831.671 353H960.329C965.118 353 969 349.092 969 344.27V123.73C969 118.908 965.118 115 960.329 115H831.671C826.882 115 823 118.908 823 123.73V344.27C823 349.092 826.882 353 831.671 353Z" fill="white"/>
<path fill-rule="evenodd" clip-rule="evenodd" d="M831 146.29V234.71C831 236.528 832.456 238 834.253 238H957.747C959.544 238 961 236.528 961 234.71V146.29C961 144.472 959.544 143 957.747 143H834.253C832.456 143 831 144.472 831 146.29Z" fill="#E4DCF1"/>
<path fill-rule="evenodd" clip-rule="evenodd" d="M895.147 167L896.699 168.183L900 182.554L899.929 184.921L894.702 185C894.347 185.005 893.989 184.935 893.671 184.749C892.177 183.872 891.539 181.425 892.364 179.257C892.808 178.091 893.945 176.028 894.077 175.115C894.391 172.931 895.147 167 895.147 167Z" fill="#8E2B43"/>
<path fill-rule="evenodd" clip-rule="evenodd" d="M868 241L922.224 240.792L924.019 240.786C924.019 240.786 930.506 210.137 920.003 198.325C917.445 195.451 914.12 193.332 910.497 191.956C899.224 187.658 885.044 190.5 882.004 199.921C877.988 212.372 868 241 868 241Z" fill="#4EC9B4"/>
<path fill-rule="evenodd" clip-rule="evenodd" d="M910.16 192.489C910.16 192.489 907.945 198.515 903.057 199.783C898.169 201.052 892.568 196.559 893.026 191.326C893.026 191.326 897.711 190.639 898.474 188.366C899.402 185.605 898.78 185.512 898.78 185.512C898.78 185.512 896.947 182.023 896.336 179.486C895.725 176.949 896.641 167.117 900.918 166.165C903.623 165.564 907.945 166.483 911 170.923C911 170.923 909.472 179.486 907.334 183.609C905.195 187.732 904.126 189.635 910.16 192.489Z" fill="#FA9E89"/>
<path opacity="0.184408" fill-rule="evenodd" clip-rule="evenodd" d="M834.167 116.013L967 302.239V344.483C967 349.187 963.301 353 958.737 353H838.573C833.286 353 829 348.582 829 343.131V119.827C829 116.898 831.33 115.871 834.167 116.013Z" fill="#F4F2F9"/>
<path fill-rule="evenodd" clip-rule="evenodd" d="M874 222.442L867.018 192L856 193.816L866.684 238L874 222.442Z" fill="#4EC9B4"/>
<path fill-rule="evenodd" clip-rule="evenodd" d="M864.8 191.137L864.2 188.031C864.2 188.031 866 186.847 865.7 185.072C865.4 183.297 866 179.155 866 179.155C866 179.155 865.043 178.508 864.425 179.673C863.984 180.502 863.3 182.41 863.3 182.41C863.3 182.41 861.004 176.244 860.474 174.619C860.249 173.929 860.022 172.853 859.499 173.017C859.224 173.103 859.324 173.732 859.371 174.347C859.511 176.191 860.299 179.131 860.299 179.131L859.899 179.365L858.236 174.089C858.163 173.833 858.043 173.445 857.774 173.424C857.536 173.405 857.299 173.535 857.299 174.126C857.299 175.31 858.574 180.203 858.574 180.203L858.255 180.422L856.32 176.144C856.187 175.821 855.707 175.849 855.625 176.188C855.56 176.456 855.579 176.839 855.798 177.38C856.398 178.86 856.999 181.226 856.999 181.226L856.848 181.399L855.798 179.229C855.61 178.882 855.149 178.659 855.015 179.029C854.827 179.547 856.473 184 856.473 184.296C856.473 184.592 857.599 188.622 858.799 188.918C859.999 189.214 860.074 192 860.074 192L864.8 191.137Z" fill="#FA9E89"/>
<path fill-rule="evenodd" clip-rule="evenodd" d="M934.351 264H956.649C957.947 264 959 262.928 959 261.606V258.394C959 257.072 957.947 256 956.649 256H934.351C933.053 256 932 257.072 932 258.394V261.606C932 262.928 933.053 264 934.351 264Z" fill="#FFDEDD"/>
<path fill-rule="evenodd" clip-rule="evenodd" d="M902.351 264H924.649C925.947 264 927 262.928 927 261.606V258.394C927 257.072 925.947 256 924.649 256H902.351C901.053 256 900 257.072 900 258.394V261.606C900 262.928 901.053 264 902.351 264Z" fill="#FFDEDD"/>
<path fill-rule="evenodd" clip-rule="evenodd" d="M868.352 264H890.649C891.947 264 893 262.928 893 261.606V258.394C893 257.072 891.947 256 890.649 256H868.352C867.053 256 866 257.072 866 258.394V261.606C866 262.928 867.053 264 868.352 264Z" fill="#FFDEDD"/>
<path fill-rule="evenodd" clip-rule="evenodd" d="M836.351 264H858.649C859.947 264 861 262.928 861 261.606V258.394C861 257.072 859.947 256 858.649 256H836.351C835.053 256 834 257.072 834 258.394V261.606C834 262.928 835.053 264 836.351 264Z" fill="#FFDEDD"/>
<path fill-rule="evenodd" clip-rule="evenodd" d="M838.547 283H956.453C957.86 283 959 281.921 959 280.589V277.411C959 276.079 957.86 275 956.453 275H838.547C837.14 275 836 276.079 836 277.411V280.589C836 281.921 837.14 283 838.547 283Z" fill="#F4F2F9"/>
<path fill-rule="evenodd" clip-rule="evenodd" d="M956.453 299C957.86 299 959 297.921 959 296.589V293.411C959 292.079 957.86 291 956.453 291H838.547C837.14 291 836 292.079 836 293.411V296.589C836 297.921 837.14 299 838.547 299H956.453Z" fill="#F4F2F9"/>
<path fill-rule="evenodd" clip-rule="evenodd" d="M838.547 315H956.453C957.86 315 959 313.921 959 312.589V309.411C959 308.079 957.86 307 956.453 307H838.547C837.14 307 836 308.079 836 309.411V312.589C836 313.921 837.14 315 838.547 315Z" fill="#F4F2F9"/>
<path fill-rule="evenodd" clip-rule="evenodd" d="M838.547 328H956.453C957.86 328 959 326.921 959 325.589V322.411C959 321.079 957.86 320 956.453 320H838.547C837.14 320 836 321.079 836 322.411V325.589C836 326.921 837.14 328 838.547 328Z" fill="#F4F2F9"/>
<path fill-rule="evenodd" clip-rule="evenodd" d="M913.222 163.321C913.222 163.321 906.921 154.473 895.033 159.596C883.144 164.718 896.049 173.1 896.049 173.1C896.049 173.1 896.303 169.84 898.183 168.909L898.03 171.806L904.686 172.971L905.753 170.177L906.439 173.359L909.792 174.6C909.792 174.6 907.049 184.224 905.448 185.621C905.448 185.621 904.762 187.872 904.991 188.337C905.22 188.803 915.355 191.364 916.651 189.036C917.947 186.708 915.279 183.448 914.441 181.275C913.603 179.102 915.965 167.564 913.222 163.321Z" fill="#FC516B"/>
<path fill-rule="evenodd" clip-rule="evenodd" d="M942.352 139H959.648C960.947 139 962 137.657 962 136C962 134.343 960.947 133 959.648 133H942.352C941.053 133 940 134.343 940 136C940 137.657 941.053 139 942.352 139Z" fill="#E4DCF1"/>
<path fill-rule="evenodd" clip-rule="evenodd" d="M916 211C916 211 913.336 230.286 910.291 238H894.229C894.229 238 891.582 229.862 904.277 227.2C913.107 225.349 916 211 916 211Z" fill="#44AD99"/>
<path fill-rule="evenodd" clip-rule="evenodd" d="M884.389 206C884.389 206 881.13 216 881.741 219C882.352 222 885 224.2 885 226.2C885 228.2 883.37 235.8 883.37 235.8L874 236C874 236 875.556 235.734 879.093 232.95C884.491 228.7 879.857 219.325 881.002 214C881.603 211.206 884.389 206 884.389 206Z" fill="#44AD99"/>
<path fill-rule="evenodd" clip-rule="evenodd" d="M874 221.772C874 221.772 873.787 230.155 872.085 228.865C870.383 227.575 871.447 215.108 869.958 210.809C868.468 206.51 864 192.752 864 192.752L867.83 192L874 221.772Z" fill="#44AD99"/>
<path fill-rule="evenodd" clip-rule="evenodd" d="M848.623 183.475C848.623 183.475 847.047 184.167 845.124 186.521C844.487 187.301 841.093 188.542 840.29 189.509C828.645 203.529 813.094 214.35 803.126 210.042C790.396 204.54 788 199.424 788 199.424L796.414 188.062C796.414 188.062 806.077 202.821 813.848 198.801C821.62 194.781 836.94 184.244 836.94 184.244L837.346 177.78C837.346 177.78 838.241 177.54 838.67 178.775C839.1 180.011 839.12 181.079 839.12 181.079L845.169 174.055C845.169 174.055 846.331 173.695 845.977 174.824C845.623 175.953 843.486 179.192 843.486 179.192C843.486 179.192 843.267 179.808 843.729 179.527C844.269 179.2 848.495 174.435 848.495 174.435C848.495 174.435 849.468 174.371 849.071 175.301C848.764 176.018 846.206 179.392 845.341 180.655C845.083 181.031 845.623 180.89 845.623 180.89L849.119 177.921C849.592 177.601 850.082 177.707 849.988 178.288C849.914 178.748 848.962 179.807 848.396 180.227C846.982 181.273 845.996 183.179 845.996 183.179L849.04 182.08C849.04 182.08 849.635 182.607 848.623 183.475Z" fill="#FA9E89"/>
<path fill-rule="evenodd" clip-rule="evenodd" d="M777 146.49L780.851 174.81L793.495 177C793.495 177 792.854 176.332 792.123 175.44C791.375 174.533 790.532 173.391 790.16 172.474C789.31 170.37 789.304 168.408 789.304 168.408C789.304 168.408 794.912 169.041 795.781 165.813C796.653 162.581 794.638 147.529 794.638 147.529C794.638 147.529 792.136 138.071 777 146.49Z" fill="#FA9E89"/>
<path fill-rule="evenodd" clip-rule="evenodd" d="M787.613 146.812C787.613 146.812 793.849 151.522 799.832 147.51C799.832 147.51 796.04 147.161 794.86 145.242C794.86 145.242 797.219 145.853 800 141.928C800 141.928 795.113 142.626 793.428 141.143C791.742 139.66 783.147 137.305 778.007 140.881C772.867 144.457 772.951 147.074 772.951 147.074C772.951 147.074 769.918 148.207 770.002 149.952C770.086 151.696 777.501 166 777.501 166L779.102 159.633C779.102 159.633 777.838 160.011 777.08 157.046C776.322 154.08 779.608 155.359 779.945 155.97C780.282 156.581 782.473 151.783 782.473 151.783L782.136 148.992C782.136 148.992 781.04 145.416 787.613 146.812Z" fill="#261F27"/>
<path fill-rule="evenodd" clip-rule="evenodd" d="M775.786 279.384C779.377 293.871 772.736 351.793 772.736 351.793L779.234 353C805.395 292.985 799.41 244 799.41 244L770 246.414C770 246.414 770.075 245.19 770.106 245.48C770.444 248.488 772.514 266.169 775.786 279.384Z" fill="white"/>
<path fill-rule="evenodd" clip-rule="evenodd" d="M808.27 337.076L815.823 342.935C815.823 342.935 818.798 342.576 819.371 343.951C819.943 345.326 820 346.88 820 346.88L812.104 347L799 341.799L801.06 336L808.27 337.076Z" fill="#6397D9"/>
<path fill-rule="evenodd" clip-rule="evenodd" d="M778.449 354.34C778.449 354.34 781.122 358.662 783.815 362.192C784.72 363.378 786.932 363.893 787.793 366.787C788.533 369.276 787.053 371 787.053 371C787.053 371 782.088 370.106 778.634 367.043C775.181 363.979 770 358.106 770 358.106L771.418 353L778.449 354.34Z" fill="#6397D9"/>
<path fill-rule="evenodd" clip-rule="evenodd" d="M978 282C978 285.866 990.984 289 1007 289C1023.02 289 1036 285.866 1036 282C1036 278.134 1023.02 275 1007 275C990.984 275 978 278.134 978 282Z" fill="#224A7D"/>
<path fill-rule="evenodd" clip-rule="evenodd" d="M978 281C978 284.866 990.984 288 1007 288C1023.02 288 1036 284.866 1036 281C1036 277.134 1023.02 274 1007 274C990.984 274 978 277.134 978 281Z" fill="#6397D9"/>
<path fill-rule="evenodd" clip-rule="evenodd" d="M999 277C999 278.657 1004.37 280 1011 280C1017.63 280 1023 278.657 1023 277C1023 275.343 1017.63 274 1011 274C1004.37 274 999 275.343 999 277Z" fill="#162F44"/>
<path fill-rule="evenodd" clip-rule="evenodd" d="M1036 280V283.986C1036 283.986 1035.93 286.45 1031 288L1032.18 283.682C1032.18 283.682 1035.64 282.187 1036 280Z" fill="#162F44"/>
<path fill-rule="evenodd" clip-rule="evenodd" d="M978.006 280V284.085C978.006 284.085 977.617 286.128 983 288L981.348 283.234C981.348 283.234 978.487 281.957 978.006 280Z" fill="#8CC5F2"/>
<path fill-rule="evenodd" clip-rule="evenodd" d="M997 267.038L998.968 274.728C999.456 276.642 1001.39 278 1003.62 278H1007.85C1009.44 278 1010.88 277.315 1011.75 276.228C1012.06 275.847 1012.29 275.416 1012.45 274.95L1014.15 269.637L1015 267L997 267.038Z" fill="#FC516B"/>
<path fill-rule="evenodd" clip-rule="evenodd" d="M997 266C997 266.552 1001.03 267 1006 267C1010.97 267 1015 266.552 1015 266C1015 265.448 1010.97 265 1006 265C1001.03 265 997 265.448 997 266Z" fill="#9B293F"/>
<path fill-rule="evenodd" clip-rule="evenodd" d="M1009.41 276.657C1009.05 276.794 1008.72 276.91 1008.41 277L1010.52 276.676C1010.81 276.274 1011.03 275.819 1011.17 275.326L1012.79 269.718C1012.87 269.448 1013 269.019 1013 269C1013 269 1008.78 270.242 1005 269.818C1006.23 269.982 1009.31 270.23 1011.17 270.138C1011.63 270.115 1011.99 270.507 1011.93 270.953C1011.7 272.61 1011.03 276.027 1009.41 276.657Z" fill="#F995A9"/>
<path fill-rule="evenodd" clip-rule="evenodd" d="M1005 263.901L1005.68 266.988L1006.17 267C1006.17 267 1006.2 263.901 1009.85 261.999C1013.5 260.1 1012.97 253 1012.97 253L1012.97 253.009C1012.88 253.192 1011.48 256.108 1010.42 256.3C1009.33 256.501 1008.65 258.25 1008.65 258.25C1008.65 258.25 1008.13 259 1007.5 258.85C1006.88 258.7 1006.25 260.349 1006.25 260.349L1006.04 262.101L1005 263.901Z" fill="#51A595"/>
<path fill-rule="evenodd" clip-rule="evenodd" d="M1009.99 269.987C1009.99 269.987 1010.69 246.551 998.392 240C998.392 240 994.892 241.352 998.992 246.967C1003.09 252.582 999.792 256.638 1001.59 258.094C1003.39 259.549 1005.99 260.485 1005.59 262.357C1005.19 264.229 1005.69 266.101 1006.49 266.309C1007.29 266.516 1009.09 267.621 1009.37 270L1009.99 269.987Z" fill="#4EC9B4"/>
<path fill-rule="evenodd" clip-rule="evenodd" d="M1010 265.8L1010.04 266.988L1010.58 267C1010.58 267 1010.61 263.901 1014.57 261.999C1018.54 260.1 1017.97 253 1017.97 253L1017.97 253.009L1017.63 254.077C1017.63 260.526 1013.91 261.864 1012.42 262.725C1010.93 263.586 1010 265.8 1010 265.8Z" fill="#41877A"/>
<path fill-rule="evenodd" clip-rule="evenodd" d="M790.185 177.105C790.185 177.105 779.633 177.277 778.691 176L778 177.898C778 177.898 786.361 182.455 792 180.522L790.185 177.105Z" fill="#306299"/>
<path fill-rule="evenodd" clip-rule="evenodd" d="M805 190.916L792.412 205C792.412 205 775.59 189.918 776.008 185.19C776.425 180.463 782.589 170.675 792.042 179.667C801.24 188.415 805 190.916 805 190.916Z" fill="#8CC5F2"/>
<path fill-rule="evenodd" clip-rule="evenodd" d="M772.565 352.654L775.131 353C775.131 353 787.157 310.53 783.202 279.153C782.012 269.719 777.857 246 777.857 246L770 246.737C770.318 249.76 772.357 266.592 775.426 279.874C778.793 294.436 772.565 352.654 772.565 352.654Z" fill="#F4F2F9"/>
<path fill-rule="evenodd" clip-rule="evenodd" d="M786.253 175.558C787.741 175.882 788.552 175.985 789 176C788.302 175.034 787.516 173.818 787.168 172.842C786.375 170.601 786.369 168.512 786.369 168.512C786.369 168.512 783.398 167.73 783.092 168.099C782.788 168.467 783.092 174.869 786.253 175.558Z" fill="#E6846F"/>
<path fill-rule="evenodd" clip-rule="evenodd" d="M932 179C932 189.492 940.048 198 949.973 198C954.129 198 957.954 196.509 961 194.004V163.996C957.954 161.491 954.129 160 949.973 160C940.048 160 932 168.508 932 179Z" fill="#CEC3E2"/>
<path fill-rule="evenodd" clip-rule="evenodd" d="M932 179.5C932 189.716 939.493 198 948.734 198C952.603 198 956.165 196.548 959 194.109V164.891C956.165 162.452 952.603 161 948.734 161C939.493 161 932 169.284 932 179.5Z" fill="#C3B8D8"/>
<path fill-rule="evenodd" clip-rule="evenodd" d="M906 196.096C906 196.096 907.985 194.992 908.298 194.791C908.612 194.592 912.687 195.693 918.124 201.307C923.557 206.921 918.854 211.631 921.152 214.638C923.453 217.645 921.259 223.96 920.108 228.272C918.958 232.581 920.108 237.994 920.108 237.994L920.168 238L921.989 237.994C921.989 237.994 928.573 209.126 917.914 197.999C915.318 195.293 911.944 193.296 908.267 192L906 196.096Z" fill="#44AD99"/>
</svg>
